<svg width="1817" height="996" viewBox="0 0 1817 996" fill="none" xmlns="http://www.w3.org/2000/svg">
<g clip-path="url(#clip0_564:11733)">
<path d="M1814.22 988.013C1811.68 989.287 1807.05 988.361 1804.73 988.361C1799.41 988.361 1793.97 988.361 1788.65 988.361C1778 988.361 1767.24 988.477 1756.59 988.939C1752.54 989.171 1747.33 988.939 1745.02 985.004C1742.36 980.374 1743.86 971.115 1743.75 965.79C1742.7 909.769 1743.98 853.632 1743.86 797.495C1743.86 791.591 1743.86 785.573 1743.86 779.67C1743.86 766.243 1743.63 752.701 1741.08 739.39C1738.08 723.995 1730.79 712.421 1714.01 709.643C1696.88 706.749 1682.53 711.148 1672.46 726.079C1660.19 744.251 1655.91 764.854 1655.91 786.383C1655.68 849.002 1655.45 911.621 1656.14 974.24C1656.26 986.509 1652.79 989.981 1640.87 989.055C1627.44 988.013 1613.79 987.898 1600.48 989.055C1587.05 990.328 1582.66 986.856 1582.89 972.272C1583.7 898.078 1583.24 824 1583.24 749.807C1583.24 675.613 1583.47 601.535 1583 527.342C1582.89 517.156 1585.55 514.147 1595.73 514.725C1612.05 515.651 1628.48 515.536 1644.8 514.725C1653.94 514.262 1656.03 517.272 1655.91 526.069C1655.45 569.358 1655.68 612.763 1655.8 656.052C1655.8 659.64 1654.41 663.576 1657.53 667.742C1673.96 646.677 1694.22 632.208 1721.41 630.588C1762.38 628.157 1796.05 656.399 1809.94 693.554C1817.46 713.925 1816.31 734.181 1816.19 755.363C1816.07 764.738 1816.42 773.998 1816.42 783.373C1816.42 839.048 1815.26 894.953 1816.77 950.627C1817 961.16 1817.23 971.809 1816.54 982.342C1816.42 983.962 1816.31 985.699 1815.38 987.087C1815.03 987.435 1814.57 987.782 1814.22 988.013Z" fill="#1D1D1B"/>
<path d="M790.288 948.891C790.056 892.291 789.825 835.575 789.593 778.975C789.478 740.779 788.32 699.457 764.944 669.132C747.701 646.793 720.274 633.829 692.269 630.357C656.857 625.958 618.32 637.07 595.407 664.502C575.849 687.767 569.6 719.366 566.36 749.576C566.128 752.006 566.013 755.016 567.98 756.52C569.253 757.562 571.104 757.562 572.725 757.562C590.315 757.562 607.905 757.678 625.38 757.678C627.578 757.678 629.777 757.678 631.86 756.752C637.415 754.205 637.878 746.566 638.804 740.547C642.275 718.44 666.925 702.235 688.565 707.791C698.981 710.453 708.239 717.514 712.752 727.236C717.265 736.959 716.571 749.113 710.206 757.678C703.147 767.401 690.764 771.452 679.076 774.23C661.254 778.512 642.97 781.174 625.495 786.73C608.021 792.286 590.893 801.083 579.321 815.204C568.327 828.515 563.119 845.414 560.458 862.313C559.185 870.762 557.912 879.675 557.912 888.24C558.027 895.532 556.87 902.824 557.449 910.232C559.763 940.558 577.469 969.726 603.97 984.773C605.822 985.815 607.674 986.856 609.641 987.666C645.516 1004.57 692.153 994.611 717.96 964.633C718.075 972.967 719.001 982.921 726.408 986.74C729.532 988.477 733.351 988.592 736.939 988.592C749.437 988.94 762.051 989.171 774.549 989.518C778.947 989.634 783.923 989.518 787.048 986.509C790.172 983.384 790.404 978.522 790.404 974.008C790.288 965.79 790.288 957.341 790.288 948.891ZM718.075 847.381C718.307 866.364 715.645 884.768 704.767 901.088C692.847 919.144 675.72 926.899 654.426 926.205C644.821 925.973 638.109 921.459 634.175 912.547C623.296 888.124 633.133 860.924 657.204 849.002C674.91 840.205 695.277 838.585 712.405 828.283C717.265 825.505 718.191 828.978 718.075 832.913V847.381Z" fill="#1D1D1B"/>
<path d="M1557.54 799.81C1557.54 776.197 1558.12 752.585 1554.88 729.089C1547.13 672.604 1517.97 638.575 1466.35 631.861C1424 626.421 1383.84 632.324 1357.57 672.026C1342.29 695.059 1336.62 721.218 1334.43 748.534C1333.85 756.868 1337.2 758.025 1344.26 757.91C1359.19 757.447 1374.12 757.331 1389.05 757.91C1398.65 758.257 1405.13 757.678 1405.71 745.177C1406.17 734.644 1411.85 725.037 1419.37 717.051C1430.36 705.708 1445.98 703.277 1462.07 710.222C1477.23 716.935 1484.06 728.163 1482.9 744.599C1482.09 758.257 1473.53 767.053 1453.97 772.146C1433.95 777.471 1413.58 781.059 1393.68 786.73C1366.94 794.37 1345.42 809.764 1335.58 836.501C1322.62 871.341 1321.46 907.107 1333.85 942.525C1338.71 956.299 1347.27 968.337 1358.84 977.365C1394.14 1004.91 1450.61 1000.17 1483.48 970.883C1487.53 967.295 1486.14 973.546 1486.49 976.439C1486.95 980.027 1488.11 983.615 1491 985.93C1493.89 988.361 1497.83 988.824 1501.65 989.056C1516.11 989.634 1530.35 988.014 1544.81 988.94C1554.88 989.634 1557.77 986.509 1557.77 976.208C1557.31 917.408 1557.66 858.609 1557.54 799.81ZM1400.85 909.19C1392.17 881.295 1402.59 858.146 1429.67 847.034C1438.58 843.446 1447.95 841.247 1457.09 838.006C1466 834.765 1474.8 831.061 1485.22 827.01C1486.03 848.308 1487.41 868.448 1479.66 887.893C1469.48 913.241 1448.18 927.826 1422.84 926.321C1411.5 925.626 1404.32 920.302 1400.85 909.19Z" fill="#1D1D1B"/>
<path d="M140.838 119.682C148.36 63.3134 126.025 25.8115 76.7258 0H53.5808C31.1301 2.66217 16.2016 14.8156 7.63795 35.5342C2.77749 47.3404 0.46299 59.6095 0.115814 72.2259V74.6566C0.69444 83.3376 -1.04144 92.1343 1.15734 100.815C1.15734 100.931 1.27307 101.163 1.27307 101.278C8.44802 137.623 15.8544 173.967 18.6318 211.006C23.8395 282.422 26.8483 354.185 36.4535 425.253C40.3882 454.421 45.3643 483.242 59.4828 509.632C68.6251 526.647 81.4706 538.569 101.26 541.579C125.215 545.282 134.01 538.685 137.25 514.61C142.458 475.719 141.3 436.712 138.986 397.821C133.663 305.108 128.571 212.511 140.838 119.682ZM93.6217 23.8438C122.322 46.5302 129.381 78.2447 129.149 118.872C127.529 134.845 125.678 156.952 122.784 178.829C115.031 238.554 121.974 298.048 124.52 357.541C126.488 406.155 129.497 454.653 125.909 503.266C125.793 504.308 125.793 505.234 125.678 506.16C123.247 531.161 109.823 537.412 88.1826 523.869C76.0315 516.23 70.2452 504.077 65.1533 491.576C51.7292 459.051 48.3732 424.443 45.2486 390.066C39.4624 326.753 35.2962 263.439 30.3201 200.126C27.6584 165.518 18.8633 131.835 14.5815 97.4587C12.267 78.4762 14.9286 59.9568 22.335 42.3633C35.0648 12.1534 67.9307 3.4724 93.6217 23.8438Z" fill="#1D1D1B"/>
<path d="M1338.25 989.981C1298.67 989.981 1260.71 989.866 1222.87 989.981C1214.88 989.981 1214.07 983.384 1211.76 978.522C1189.42 932.687 1166.97 886.851 1145.45 840.784C1140.01 829.209 1137.81 830.714 1128.9 838.585C1103.32 861.04 1093.26 887.546 1097.54 921.344C1099.85 940.326 1097.54 959.887 1098.12 979.101C1098.35 987.435 1096.84 991.139 1087.24 990.907C1057.38 990.329 1027.52 990.444 997.667 990.907C989.219 991.023 987.251 988.014 987.251 980.027C987.483 822.033 987.483 663.923 987.251 505.929C987.251 497.595 989.913 495.28 998.014 495.396C1026.95 495.859 1055.88 495.975 1084.69 495.28C1094.99 495.049 1097.54 498.405 1097.42 508.359C1097.07 579.196 1097.19 650.033 1097.19 720.87C1097.19 725.963 1097.19 731.172 1097.19 740.895C1109.57 724.111 1119.41 710.916 1129.01 697.605C1174.26 635.218 1219.4 572.83 1264.53 510.443C1268.23 505.234 1271.47 500.836 1279.23 500.952C1313.36 501.415 1347.5 501.183 1381.87 501.183C1383.26 507.897 1378.06 511.137 1375.28 515.073C1321.81 591.118 1268.35 667.048 1214.54 742.746C1209.56 749.691 1209.44 754.668 1213.49 761.96C1252.96 833.029 1291.96 904.329 1331.19 975.629C1333.39 979.796 1335.35 984.078 1338.25 989.981Z" fill="#A71A1C"/>
<path d="M239.782 672.025C276.698 612.647 352.961 617.855 379.462 678.507C381.314 675.382 383.05 672.488 384.67 669.594C410.708 623.99 465.677 616.698 502.825 654.316C524.929 676.655 535.46 704.897 536.038 735.338C537.311 816.708 536.501 898.194 536.964 979.564C536.964 987.782 533.724 988.939 526.664 988.823C510.347 988.476 493.914 988.129 477.481 988.939C467.413 989.402 464.52 986.393 464.636 976.207C465.099 910.694 464.867 845.182 464.867 779.669C464.867 763.233 463.941 746.913 456.304 731.866C450.865 721.101 444.037 712.189 430.728 711.379C417.304 710.568 409.435 718.787 402.954 728.856C392.192 745.871 390.456 764.969 390.456 784.415C390.456 847.497 390.109 910.579 390.687 973.776C390.803 985.351 388.373 990.097 375.875 989.055C361.525 987.897 346.943 988.013 332.593 989.055C320.789 989.865 317.202 986.508 317.318 974.239C318.012 909.653 317.665 845.182 317.549 780.595C317.549 766.59 317.433 752.7 314.077 738.926C310.837 725.616 304.125 716.124 289.428 714.272C270.218 711.842 259.802 716.587 252.164 731.634C244.874 745.755 244.064 761.15 244.064 776.66C244.064 842.635 243.832 908.611 244.295 974.702C244.411 985.93 241.749 989.865 230.061 989.055C213.744 988.013 197.311 988.476 180.993 988.939C173.24 989.171 171.157 986.509 171.273 978.985C171.504 869.141 171.504 759.298 171.273 649.454C171.273 640.773 174.397 639.037 182.151 639.269C197.542 639.732 213.049 640.079 228.325 639.153C238.509 638.574 240.823 642.625 240.013 651.538C239.319 657.557 239.782 663.691 239.782 672.025Z" fill="#1D1D1B"/>
<path d="M882.403 669.594C900.109 639.615 924.759 629.893 954.963 630.703C962.485 630.934 964.915 632.786 964.8 640.426C964.337 666.932 964.452 693.438 964.8 719.944C964.915 727.236 963.527 730.014 955.31 728.856C909.136 722.259 888.074 748.649 886.801 789.739C885.065 850.39 885.412 911.157 886.222 971.924C886.454 986.508 882.056 989.981 868.516 988.823C854.629 987.666 840.511 987.781 826.624 988.823C815.283 989.633 812.158 986.161 812.158 974.586C812.621 871.456 812.39 768.326 812.39 665.195C812.39 639.384 812.39 639.384 837.849 639.384C842.71 639.384 847.454 639.384 852.315 639.384C879.973 639.384 879.973 639.384 882.403 669.594Z" fill="#1D1D1B"/>
<path d="M578.509 331.499C567.515 316.915 553.281 306.497 537.426 298.048C510.925 283.811 482.457 275.362 452.715 270.963C447.392 270.269 439.407 272.236 438.713 262.398C436.63 236.008 434.315 209.733 432.116 183.343C431.769 178.945 432.232 175.704 437.093 172.81C464.057 156.605 471.579 136.697 464.172 104.172C455.609 66.5546 414.295 36.4604 377.031 40.7431C344.628 44.5627 319.979 75.93 319.863 118.988C321.252 130.678 323.913 147.924 325.186 165.171C331.32 252.096 336.759 339.022 343.008 425.948C345.554 461.019 349.257 495.975 353.308 530.814C355.391 548.524 366.385 553.501 382.123 545.283C402.144 534.866 410.129 516.23 411.633 495.396C415.336 442.963 426.677 391.687 435.472 340.064C436.283 335.55 436.977 331.962 442.069 330.11C462.436 322.586 490.326 333.119 502.362 353.259C514.397 373.052 510.462 397.821 492.988 413.563C483.614 422.013 472.157 427.337 461.395 433.703C445.888 442.847 434.547 455.348 429.455 472.941C424.71 489.03 431.075 496.322 447.161 493.081C453.757 491.808 460.469 490.419 466.834 488.567C508.495 476.761 548.42 461.945 577.004 426.874C601.307 396.78 601.885 362.287 578.509 331.499ZM570.639 414.373C569.251 416.341 567.862 418.309 566.242 420.045C533.492 457.894 488.706 470.858 440.911 481.738C444.383 462.64 455.261 451.991 469.148 443.541C478.985 437.523 489.4 432.198 498.427 425.138C523.655 405.576 529.557 372.473 513.24 346.43C496.344 319.461 459.659 307.886 432.116 320.271C425.52 323.165 424.594 328.142 423.553 333.929C413.948 388.446 402.838 442.615 398.093 497.942C396.936 511.716 391.613 523.985 379.577 532.319C371.129 538.106 366.616 538.106 365.227 525.721C360.02 478.844 355.969 431.851 352.96 384.742C347.29 296.775 343.24 208.807 333.403 121.187C331.551 104.056 333.982 87.5047 345.323 73.3836C358.978 56.4846 376.105 49.5398 397.746 54.6327C432.811 62.9664 455.956 94.5653 453.063 130.331C451.905 144.915 445.888 156.258 431.653 161.698C420.775 165.865 417.651 173.504 418.808 184.385C421.585 212.164 424.363 240.059 426.33 267.838C427.025 276.635 429.802 280.339 438.944 281.496C469.611 285.547 499.584 292.261 527.242 306.729C543.213 315.063 557.794 325.017 568.788 339.601C587.304 364.139 587.998 389.14 570.639 414.373Z" fill="#1D1D1B"/>
<path d="M844.678 396.085C831.717 384.047 816.209 376.523 800.008 370.157C782.533 363.444 765.059 356.731 744.691 348.976C770.382 331.498 796.652 322.122 822.806 312.979C831.369 309.853 837.271 305.802 837.619 296.079C838.429 275.708 825.12 257.073 805.216 251.864C796.883 249.665 788.32 247.466 779.756 247.003C724.555 244.109 674.909 254.874 642.969 305.802C618.551 344.577 634.868 387.982 678.612 401.062C685.903 403.261 693.772 403.955 701.294 404.881C723.514 407.775 744.691 413.331 763.902 425.369C772.581 430.809 779.409 437.406 776.053 448.865C772.581 460.44 766.101 468.311 752.792 468.774C739.6 469.121 726.87 467.269 714.256 463.912C688.333 456.736 662.411 449.56 636.373 442.615C629.198 440.763 621.907 440.184 616.237 446.55C610.103 453.611 612.88 461.018 616.005 468.195C623.874 486.367 638.34 498.057 655.699 506.275C696.55 525.374 739.368 527.11 782.765 518.776C811.118 513.336 835.188 500.025 852.432 476.181C872.683 448.286 869.79 419.465 844.678 396.085ZM844.331 465.764C826.509 492.733 799.661 504.308 769.109 508.822C757.19 510.558 745.154 511.716 733.35 510.674C704.766 509.979 677.571 505.465 652.806 490.534C641.812 483.821 632.901 475.371 627.809 463.333C626.652 460.671 624.916 457.662 626.652 455.231C628.619 452.685 631.975 454.189 634.753 455C660.675 462.06 686.597 469.468 712.636 476.413C727.101 480.348 741.914 482.084 756.958 480.464C773.391 478.728 783.575 469.584 788.088 452.8C792.139 437.406 788.32 427.105 773.738 416.919C753.486 402.914 730.573 395.853 706.386 393.307C680.695 390.645 656.625 384.626 647.135 357.541C637.298 329.299 652.343 307.307 672.132 290.061C711.131 256.031 757.19 252.559 805.331 264.944C818.524 268.416 822.69 280.569 824.889 292.954C826.278 300.131 820.491 300.362 816.094 301.867C787.625 312.284 759.388 323.164 734.045 340.41C721.431 349.091 721.315 349.323 734.623 356.731C753.602 367.264 774.433 373.514 794.453 381.385C810.77 387.751 826.393 395.159 838.66 407.891C855.325 424.906 857.408 445.856 844.331 465.764Z" fill="#1D1D1B"/>
<path d="M978.803 255.106C973.595 238.091 965.378 223.16 946.052 220.614C926.263 218.067 909.946 226.401 898.605 242.49C888.19 257.19 882.751 274.204 880.552 292.145C874.071 343.074 880.899 393.076 891.314 442.732C897.564 472.363 905.086 501.762 918.278 529.31C921.866 536.718 926.842 542.505 935.521 542.621C944.317 542.737 949.64 536.949 952.764 529.426C956.005 521.439 959.361 513.337 961.907 505.119C978.803 448.866 984.936 391.109 984.82 332.541C984.82 306.613 986.556 280.455 978.803 255.106ZM971.975 342.958C970.933 398.979 965.147 454.306 947.441 507.897C944.895 515.652 944.317 528.153 935.29 528.384C927.652 528.616 926.032 516.346 923.486 508.939C898.489 436.365 884.371 362.288 894.902 285.2C896.638 272.584 901.267 261.009 908.442 250.476C916.89 238.091 928.925 231.262 944.085 232.999C959.245 234.851 963.411 247.698 966.767 259.852C974.289 287.168 972.206 315.179 971.975 342.958Z" fill="#1E1E1C"/>
<path d="M273.226 285.316C271.953 277.792 269.755 270.269 267.093 263.092C261.191 247.582 251.817 234.271 234.343 231.725C216.984 229.294 202.75 237.86 191.293 250.707C186.432 256.148 183.424 262.745 180.762 269.458C174.744 284.969 172.198 301.173 172.43 317.609C173.124 394.233 190.83 467.038 223.349 536.37C227.631 545.398 232.144 553.848 244.179 552.691C255.636 551.765 258.529 542.968 261.654 534.055C278.55 486.136 278.202 435.786 281.211 396.433C282.484 352.102 278.55 318.651 273.226 285.316ZM267.44 382.196C266.283 431.157 266.167 480.349 250.197 527.574C248.577 532.203 248.924 539.611 242.443 539.958C236.889 540.19 236.079 533.361 234.227 529.31C201.708 456.852 181.803 381.848 186.432 301.752C187.358 287.631 191.061 274.088 198.584 262.166C205.99 250.476 217.562 243.068 231.102 243.878C244.411 244.804 251.238 256.148 255.289 267.954C263.39 291.798 265.126 316.915 267.209 341.8C268.366 355.111 267.44 368.653 267.44 382.196Z" fill="#1E1E1C"/>
<path d="M983.085 135.076C982.159 129.405 981.234 123.617 979.961 118.061C976.489 103.362 969.777 98.9633 954.733 102.899C943.623 105.792 932.513 108.918 921.982 113.316C903.235 121.071 888.191 133.109 879.974 152.554C876.04 161.814 877.66 169.8 885.413 175.588C905.781 190.866 928.81 200.126 954.27 202.209C962.139 202.788 968.851 200.01 971.744 192.255C977.53 176.514 984.011 160.888 983.664 142.137C983.548 140.748 983.548 137.854 983.085 135.076ZM961.56 183.227C959.94 189.246 956.121 189.824 950.566 189.13C931.125 186.699 913.65 179.639 897.333 168.874C890.852 164.592 890.042 160.078 893.514 153.248C902.309 135.771 941.54 112.737 960.982 114.01C965.032 114.242 966.768 116.325 967.462 120.145C968.851 128.131 971.397 136.002 970.471 143.989C971.628 158.226 965.263 170.379 961.56 183.227Z" fill="#1F1F1D"/>
<path d="M257.488 114.589C255.405 108.223 250.544 104.403 243.369 104.172C217.1 103.246 173.587 131.603 163.288 156.142C158.659 167.138 160.626 176.05 170.347 182.648C190.715 196.306 213.512 203.251 237.93 204.755C246.494 205.218 253.322 201.746 255.983 193.296C260.034 179.986 264.2 166.675 264.779 152.554C265.473 139.243 261.423 126.858 257.488 114.589ZM244.758 186.583C242.212 194.57 236.31 190.519 232.838 191.445C213.628 190.171 197.195 183.689 181.457 175.124C174.397 171.189 172.777 166.212 176.249 158.457C184.118 141.21 222.539 116.441 240.708 117.135C245.452 117.367 245.915 120.26 247.073 123.385C255.289 144.799 251.47 165.633 244.758 186.583Z" fill="#1F1F1D"/>
</g>
<defs>
<clipPath id="clip0_564:11733">
<rect width="1817" height="996" fill="white"/>
</clipPath>
</defs>
</svg>
