<svg viewBox="0 0 132 24" height="24" width="132" xmlns:xlink="http://www.w3.org/1999/xlink" xmlns="http://www.w3.org/2000/svg"><defs><clipPath id="clip-path"><rect fill="none" height="24" width="112.506" data-sanitized-data-name="Rectangle 37548" data-name="Rectangle 37548" id="Rectangle_37548"></rect></clipPath></defs><g transform="translate(7590 -1633)" data-sanitized-data-name="Teens Lifestyle Black Logo" data-name="Teens Lifestyle Black Logo" id="Teens_Lifestyle_Black_Logo"><rect opacity="0" fill="red" transform="translate(-7590 1633)" height="24" width="132" data-sanitized-data-name="Rectangle 37546" data-name="Rectangle 37546" id="Rectangle_37546"></rect><g transform="translate(-7580 1633)" data-sanitized-data-name="Group 128993" data-name="Group 128993" id="Group_128993"><g clip-path="url(#clip-path)" transform="translate(0 0)" data-sanitized-data-name="Group 128992" data-name="Group 128992" id="Group_128992"><path fill="#060707" transform="translate(0 0.005)" d="M13.253,7.583,15.132,9.12s-4.086,6.6.7,11.353c0,0,4.8-4.8.535-11.38a9.029,9.029,0,0,0-5.853-3.652,10.517,10.517,0,0,0-2.3-.171S4.186,5.245,2.649,4.153h0s-.039,6.685,7.284,9.627a12.884,12.884,0,0,0,0,2.891S-2.016,13.028.3.4c-.014.07.473.352.52.382a10.215,10.215,0,0,0,1.714.869,16.284,16.284,0,0,0,2.122.688,12.554,12.554,0,0,0,1.986.4c.549.047,1.107,0,1.658.007a17.245,17.245,0,0,1,3.193.286,9.425,9.425,0,0,1,3.97,1.747A11.84,11.84,0,0,1,20.4,13.089c.631,3.89-1.1,7.963-4.546,10.906,0,0-4.68-3.258-4.862-8.909-.105-3.259,1.156-5.361,2.26-7.5" data-sanitized-data-name="Path 111309" data-name="Path 111309" id="Path_111309"></path><path fill="#060707" transform="translate(0.186 0.003)" d="M16.685,4.374a12.727,12.727,0,0,1,1.787,1.944,3.32,3.32,0,0,1,1.6-.82,16.994,16.994,0,0,1,3.477-.388c1.245-.026,4.626-.229,5.2-.736,0,0,0,6.509-7.49,9.426a8.2,8.2,0,0,1-.1,2.8,14.614,14.614,0,0,0,8.5-6.693A14.451,14.451,0,0,0,31.017.239S28.97,2.288,24.552,2.683c-.881.079-3.175.064-4.586.3a8.246,8.246,0,0,0-3.281,1.388" data-sanitized-data-name="Path 111310" data-name="Path 111310" id="Path_111310"></path><path fill="#030404" transform="translate(0.396 0.004)" d="M35.5.353V2.407h5.848V13.74h2.379V2.407h5.819V.353Z" data-sanitized-data-name="Path 111311" data-name="Path 111311" id="Path_111311"></path><path fill="#030404" transform="translate(0.573 0.004)" d="M51.307.353H62.838V2.407H53.777l-.009,9.3h9.07V13.74H51.307Z" data-sanitized-data-name="Path 111312" data-name="Path 111312" id="Path_111312"></path><path fill="#030404" transform="translate(0.74 0.004)" d="M66.258.353H77.789V2.407H68.728l-.009,9.3h9.07V13.74H66.258Z" data-sanitized-data-name="Path 111313" data-name="Path 111313" id="Path_111313"></path><path fill="#030404" transform="translate(0.885 0.004)" d="M83.624,13.74H81.149l.006-11.5L79.232.353h3.161L92.864,10.512V.353h2.5V13.74H92.952L83.624,4.582Z" data-sanitized-data-name="Path 111314" data-name="Path 111314" id="Path_111314"></path><path fill="#030404" transform="translate(1.088 0)" d="M109.151,3.557a8.079,8.079,0,0,0-3.532-1.472,5.206,5.206,0,0,0-3.993.628c-.448.281-1.907,2.009.346,2.738a21.052,21.052,0,0,0,4.236.307c2,.038,4.313.678,4.978,2.534a3.5,3.5,0,0,1-1.292,4.147A8.621,8.621,0,0,1,104.582,14a9.592,9.592,0,0,1-7.192-2.709l1.7-1.338a8.936,8.936,0,0,0,3.767,2.013,9.874,9.874,0,0,0,4.663-.524A1.93,1.93,0,0,0,108.787,8.9c-.156-.741-1.393-1.251-3.188-1.292s-4,.075-5.576-.707a2.894,2.894,0,0,1-1.951-2.9A4.269,4.269,0,0,1,101.166.5a10.879,10.879,0,0,1,6.173-.1,14.873,14.873,0,0,1,3.319,1.694Z" data-sanitized-data-name="Path 111315" data-name="Path 111315" id="Path_111315"></path><path fill="#030404" transform="translate(0.577 0.206)" d="M51.67,18.415V23.54h3.787v-.856h-2.91V18.415Z" data-sanitized-data-name="Path 111316" data-name="Path 111316" id="Path_111316"></path><path fill="#030404" transform="translate(0.662 0.206)" d="M59.282,23.54h.877V19.2H63.32v-.787H59.282Z" data-sanitized-data-name="Path 111317" data-name="Path 111317" id="Path_111317"></path><path fill="#030404" transform="translate(0.721 0.206)" d="M64.606,18.415H68.65V19.2H65.482v3.481H68.65v.856H64.606Z" data-sanitized-data-name="Path 111318" data-name="Path 111318" id="Path_111318"></path><rect fill="#030404" transform="translate(57.282 18.622)" height="5.125" width="0.877" data-sanitized-data-name="Rectangle 37547" data-name="Rectangle 37547" id="Rectangle_37547"></rect><path fill="#030404" transform="translate(0.678 0.228)" d="M63.306,21.295v-.863H61.613a.928.928,0,0,0-.782.475,1.069,1.069,0,0,0-.145.571s.178-.184.749-.184Z" data-sanitized-data-name="Path 111319" data-name="Path 111319" id="Path_111319"></path><path fill="#030404" transform="translate(0.737 0.228)" d="M68.634,21.295v-.863H66.941a.928.928,0,0,0-.782.475,1.069,1.069,0,0,0-.145.571s.178-.184.749-.184Z" data-sanitized-data-name="Path 111320" data-name="Path 111320" id="Path_111320"></path><path fill="#030404" transform="translate(1.018 0.206)" d="M91.124,18.415h4.045V19.2H92v3.481h3.168v.856H91.124Z" data-sanitized-data-name="Path 111321" data-name="Path 111321" id="Path_111321"></path><path fill="#030404" transform="translate(1.033 0.228)" d="M95.153,21.295v-.863H93.46a.928.928,0,0,0-.782.475,1.069,1.069,0,0,0-.145.571s.178-.184.749-.184Z" data-sanitized-data-name="Path 111322" data-name="Path 111322" id="Path_111322"></path><path fill="#030404" transform="translate(0.78 0.205)" d="M73.6,19.677l.557-.537a2.506,2.506,0,0,0-1.611-.776,2.894,2.894,0,0,0-1.736.278,1.525,1.525,0,0,0-.706,1.469,1.079,1.079,0,0,0,.6.857,2.163,2.163,0,0,0,1.074.2c.242.005.486.008.728.016.211.006.833.039,1.055.5a.737.737,0,0,1-.193.752,2.039,2.039,0,0,1-1.905.332,1.8,1.8,0,0,1-.6-.3c-.039-.03-.451-.413-.446-.419l-.548.512a2.981,2.981,0,0,0,2.16,1.046,2.676,2.676,0,0,0,1.786-.587,1.6,1.6,0,0,0,.343-1.941,1.465,1.465,0,0,0-.976-.572,5.291,5.291,0,0,0-.981-.025,4.594,4.594,0,0,1-.635-.037.882.882,0,0,1-.462-.154.731.731,0,0,1,.3-1.108,2.154,2.154,0,0,1,2.2.489" data-sanitized-data-name="Path 111323" data-name="Path 111323" id="Path_111323"></path><path fill="#030404" transform="translate(0.837 0.206)" d="M74.922,18.415V19.2H76.8V23.54h.856V19.2h1.863v-.787Z" data-sanitized-data-name="Path 111324" data-name="Path 111324" id="Path_111324"></path><path fill="#030404" transform="translate(0.896 0.206)" d="M80.22,18.415a6.9,6.9,0,0,0,1.917,2.861V23.54h.878V21.276a7.192,7.192,0,0,0,1.944-2.861h-.871a7.856,7.856,0,0,1-1.5,2.229,6.82,6.82,0,0,1-1.509-2.229Z" data-sanitized-data-name="Path 111325" data-name="Path 111325" id="Path_111325"></path><path fill="#030404" transform="translate(0.961 0.206)" d="M86.075,23.54V18.415h.879v4.268h2.859v.856Z" data-sanitized-data-name="Path 111326" data-name="Path 111326" id="Path_111326"></path><path fill="#030404" transform="translate(0.782 0.065)" d="M77.73,5.77l.016,2.073s-5.046-.051-5.826,0a5.143,5.143,0,0,0-1.92.5,1.308,1.308,0,0,0,.008-.2,2.83,2.83,0,0,1,.091-.511,2.494,2.494,0,0,1,.854-1.309,2.537,2.537,0,0,1,1.281-.549c.192-.018.389-.009.581-.01.538,0,1.075,0,1.612,0l1.845.005,1.279.005h.178" data-sanitized-data-name="Path 111327" data-name="Path 111327" id="Path_111327"></path><path fill="#030404" transform="translate(0.615 0.065)" d="M62.812,5.766l.016,2.073s-5.046-.051-5.826,0a5.143,5.143,0,0,0-1.92.5,1.307,1.307,0,0,0,.008-.2,2.83,2.83,0,0,1,.091-.511,2.494,2.494,0,0,1,.854-1.309,2.537,2.537,0,0,1,1.281-.549c.192-.018.389-.009.581-.01.538,0,1.075,0,1.612,0l1.845.005,1.279.005h.178" data-sanitized-data-name="Path 111328" data-name="Path 111328" id="Path_111328"></path></g></g></g></svg> 