<?xml version="1.0" encoding="utf-8"?>
<!-- Generator: Adobe Illustrator 16.0.0, SVG Export Plug-In . SVG Version: 6.00 Build 0)  -->
<!DOCTYPE svg PUBLIC "-//W3C//DTD SVG 1.1//EN" "http://www.w3.org/Graphics/SVG/1.1/DTD/svg11.dtd">
<svg version="1.1" id="Layer_1" xmlns="http://www.w3.org/2000/svg" xmlns:xlink="http://www.w3.org/1999/xlink" x="0px" y="0px"
	 width="507px" height="140px" viewBox="0 0 507 140" enable-background="new 0 0 507 140" xml:space="preserve">
<g>
	<path fill="#9CC63E" d="M506.186,65.892c0,35.045-28.379,63.433-63.414,63.433c-34.988,0-63.383-28.388-63.383-63.433
		c0-35.012,28.395-63.4,63.383-63.4C477.807,2.492,506.186,30.88,506.186,65.892z"/>
	<polygon fill="#22704F" points="0.814,35.599 16.317,35.599 16.317,57.966 46.958,57.966 46.958,35.599 62.551,35.599 
		62.551,94.523 46.958,94.523 46.958,69.975 16.317,69.975 16.317,94.523 0.814,94.523 	"/>
	<path fill="#22704F" d="M218.486,47.834c2.253-4.069,5.021-7.108,8.439-9.136c3.357-2.071,7.305-3.1,11.796-3.1
		c6.155,0,10.886,2.131,14.176,6.427c3.333,4.235,5.007,10.33,5.007,18.255v34.228h-14.72V63.411c0-5.247-0.833-9.09-2.451-11.584
		c-1.633-2.511-4.129-3.751-7.472-3.751c-4.022,0-7.229,1.573-9.526,4.719c-2.33,3.161-3.494,7.532-3.494,13.098v28.617h-14.746
		V63.411c0-5.203-0.81-9.074-2.466-11.584c-1.641-2.511-4.174-3.751-7.561-3.751c-4.016,0-7.2,1.573-9.515,4.719
		c-2.344,3.161-3.508,7.532-3.508,13.098v28.617h-14.61V36.974h13.34V47.41c2.193-3.917,4.916-6.851,8.257-8.847
		c3.327-1.967,7.185-2.964,11.616-2.964c3.962,0,7.456,1.088,10.526,3.221C214.646,40.967,216.93,43.961,218.486,47.834"/>
	<path fill="#22704F" d="M359.113,38.834l-1.121,10.814c-2.525-1.331-5.041-2.329-7.506-2.948c-2.504-0.682-4.939-1.014-7.404-1.014
		c-2.617,0-4.674,0.438-6.094,1.347c-1.416,0.892-2.148,2.177-2.148,3.856c0,2.525,3.008,5.097,9.045,7.729
		c0.666,0.287,1.162,0.53,1.48,0.65c6.178,2.707,10.412,5.37,12.742,7.985c2.336,2.602,3.516,5.824,3.516,9.684
		c0,5.399-2.17,9.711-6.541,12.856c-4.363,3.16-10.299,4.717-17.854,4.717c-3.176,0-6.24-0.242-9.301-0.739
		c-2.98-0.486-5.848-1.194-8.521-2.148l0.814-11.269c2.74,1.377,5.545,2.391,8.373,3.086c2.902,0.665,5.717,0.982,8.537,0.982
		c2.904,0,5.18-0.469,6.783-1.451c1.609-0.952,2.404-2.298,2.404-4.009c0-2.797-3.811-6.113-11.402-9.879l-0.289-0.15
		c-5.678-2.798-9.52-5.354-11.531-7.759c-1.98-2.359-2.98-5.217-2.98-8.636c0-4.991,2.127-9.074,6.391-12.22
		c4.279-3.146,9.883-4.718,16.811-4.718c1.861,0,3.908,0.241,6.141,0.666C351.754,36.717,354.932,37.548,359.113,38.834"/>
	<path fill="#22704F" d="M163.141,36.143l-0.583,13.324c-0.778-0.273-1.618-0.469-2.495-0.604c-0.877-0.137-1.784-0.183-2.737-0.183
		c-5.021,0-8.817,1.604-11.448,4.84c-2.61,3.237-3.88,7.956-3.88,14.126v26.877h-15.185V36.974h13.627v11.464
		c1.906-4.264,4.28-7.485,7.191-9.618c2.904-2.133,6.307-3.221,10.269-3.221c0.704,0,1.438,0.044,2.284,0.136
		C161.015,35.84,161.983,35.976,163.141,36.143"/>
	<path fill="#FFFFFF" d="M400.887,46.064c0.627-3.524,0.93-5.807,1.074-7.471c0.141-2.072,1.799-3.872,3.893-3.736
		c0.211,0,0.422,0,0.574,0c0.273,0,0.484,0,0.711,0c1.793-0.091,3.236,1.513,2.73,3.146c-0.643,2.178-1.504,5.641-2.586,11.6
		l-4.387,24.456c-0.861,4.751-0.861,5.902,2.02,6.113c2.656,0.138,4.166,0.138,5.678,0.138c4.023,0,6.693-0.426,8.561-1.074
		c1.295-0.426,2.572,0.648,2.148,1.951c0,0.151-0.066,0.346-0.137,0.497c-0.648,2.224-2.586,3.889-4.9,3.797
		c-4.748-0.12-9.49-0.271-14.305-0.271c-2.375,0-4.1,0.075-5.545,0.151c-1.867,0.12-3.389-1.574-2.797-3.388
		c1.215-3.586,1.934-7.123,2.873-11.801L400.887,46.064z"/>
	<path fill="#FFFFFF" d="M435.693,67.796c-1.293,7.188-1.861,11.439-2.072,13.964c-0.145,2.025-2.02,3.371-4.037,3.371
		c-0.219,0-0.355,0-0.574,0c-1.793,0.077-3.025-1.8-2.512-3.6c0.348-1.571,0.854-3.734,1.438-6.899l1.293-7.032
		c1.723-9.588,2.373-14.338,2.307-16.908c-0.084-1.664,0.43-3.691,2.146-3.812c1.006-0.151,1.869-0.318,2.662-0.454
		c1.723-0.423,3.1,1.286,2.736,3.024c-0.295,1.437-0.725,3.388-1.307,6.625L435.693,67.796z M441.525,35.991
		c0,2.314-1.727,5.989-4.963,5.989c-1.723,0-3.523-1.149-3.523-3.75c0-2.147,1.588-5.732,5.027-5.732
		C439.943,32.497,441.525,33.631,441.525,35.991z"/>
	<path fill="#FFFFFF" d="M450.092,45.292c1.354-8.227,3.371-12.024,7.039-14.761c3.32-2.36,6.541-3.024,9.422-3.146
		c1.648-0.091,2.738,1.648,2.096,3.146c-0.645,1.664-2.594,2.103-4.318,2.163c-4.764,0.348-6.488,5.898-7.773,12.598h3.666
		c1.016,0,1.801-0.076,2.588-0.076c1.309,0,2.389,1.15,2.094,2.45c-0.227,1.361-1.588,2.087-2.955,2.087
		c-0.93-0.09-3.094-0.09-3.879-0.09h-2.367l-3.889,23.244c-0.438,2.38-0.859,4.68-1.293,7.054
		c-1.08,6.548-3.885,21.868-18.496,22.368c-1.578,0.06-2.291-1.726-1.801-3.16c0.592-1.589,2.309-2.24,3.889-2.3
		c3.023-0.288,4.672-2.163,5.33-3.04c2.648-3.282,3.813-9.408,5.545-19.059l4.096-25.107h-0.369c-0.211,0-0.363,0-0.49,0
		c-1.232,0-1.885-1.347-1.666-2.571c0.297-1.164,1.424-2.027,2.656-1.875C450.092,45.292,448.648,45.292,450.092,45.292z"/>
	<path fill="#FFFFFF" d="M478.494,80.853c2.941,0,5.195-0.694,6.891-1.392c0.912-0.438,1.82,0.546,1.525,1.603
		c-0.477,1.694-1.678,3.314-3.426,3.737c-1.746,0.423-3.93,0.711-6.607,0.711c-11.184-0.365-13.914-6.837-14.066-15.627
		c0-7.79,3.66-13.976,5.912-16.804c4.857-5.974,11.178-7.94,15.73-7.94c6.617,0,9.98,3.675,9.98,8.44
		c0,2.268-0.838,4.99-2.236,7.108c-1.893,2.949-4.5,4.613-6.76,5.747c-4.992,2.404-9.695,2.54-15.313,2.751
		C470.125,69.188,467.732,80.93,478.494,80.853z M475.4,53.293c-2.994,3.75-4.068,7.107-4.551,10.918
		c5.066-0.09,9.467,0.484,13.406-3.251c1.959-1.906,3.365-4.356,3.365-7.033c0-3.146-2.486-4.627-4.953-4.627
		C481.178,49.301,477.518,50.661,475.4,53.293z"/>
	<path fill="#22704F" d="M121.338,64.515c0-9.104-2.239-16.167-6.746-21.204c-4.491-5.051-10.798-7.577-18.89-7.577
		c-8.257,0-14.881,2.647-20.008,7.879c-5.113,5.217-7.669,12.084-7.669,20.554c0,9.498,2.632,16.927,7.88,22.311
		c5.293,5.354,12.553,8.03,21.87,8.03c3.584,0,6.986-0.271,10.117-0.816c3.19-0.574,6.125-1.392,8.832-2.525V80.141
		c-2.571,1.363-5.202,2.392-7.939,3.058c-2.723,0.68-5.55,1.043-8.47,1.043c-5.309,0-9.589-1.377-12.81-4.083
		c-3.252-2.709-5.098-6.402-5.475-11.106h39.307V64.515z M109.088,58.904H82.075c0.258-7.819,4.553-13.4,13.824-13.43
		C109.692,45.428,109.088,58.904,109.088,58.904z"/>
	<path fill="#22704F" d="M308.773,41.692c-3.984-4.068-10.293-6.109-18.98-6.109c-3.344,0-6.693,0.317-10.035,0.968
		c-3.344,0.666-6.707,1.648-10.148,3.024l0.219,10.239c2.912-1.498,5.756-2.647,8.5-3.404c2.768-0.786,5.445-1.119,7.971-1.119
		c4.551,0,8.031,1.059,10.525,3.146c2.473,2.103,3.691,5.067,3.691,8.878v0.801h-7.592c-10.111,0-17.703,1.557-22.762,4.673
		c-5.059,3.102-7.623,7.804-7.623,14.025c0,5.231,1.793,9.466,5.361,12.779c3.533,3.28,8.205,4.914,13.998,4.914
		c4.006,0,7.697-0.877,10.986-2.66c3.283-1.785,6.148-4.417,8.521-7.865l0.25,9.074h13.084V61.097
		C314.74,52.234,312.742,45.777,308.773,41.692z M297.807,76.164c-4.143,9.316-20.674,12.899-23.371,1.92
		c-3.668-14.854,25.693-11.935,25.693-11.935S300.713,69.582,297.807,76.164z"/>
	<path fill="#22704F" d="M126.964,106.806l2.692-1.105v10.392h0.016c0.755-1.209,2.404-2.526,4.521-2.526
		c2.768,0,4.855,1.801,4.976,5.277c0.061,2.134,0.061,3.208,0,5.249c-0.106,3.434-2.903,5.702-6.186,5.702
		c-1.785,0-4.432-0.56-6.02-1.497V106.806z M129.656,127.071c0.816,0.349,1.98,0.528,3.085,0.528c2.071,0,3.645-1.043,3.735-3.508
		c0.106-2.132,0.076-3.237,0-5.218c-0.045-2.117-1.467-3.1-3.039-3.1c-2.088,0-3.781,1.663-3.781,3.068V127.071z"/>
	<path fill="#22704F" d="M151.806,122.64v1.015c0,2.586,1.361,3.945,3.38,3.945c1.958,0,2.881-1.254,3.108-2.843l2.207,0.166
		c0.121,2.497-1.83,4.871-5.315,4.871c-3.721,0-5.929-2.3-6.027-5.657c-0.061-2.254-0.061-3.22,0-4.702
		c0.158-3.237,2.208-5.869,6.027-5.869c3.334,0,5.361,2.086,5.361,5.203c0,2.086-0.454,2.359-2.783,2.857
		C155.404,122.157,151.806,122.64,151.806,122.64z M151.806,120.917c0,0,2.269-0.288,4.438-0.757
		c1.398-0.303,1.618-0.605,1.618-1.452c0-1.8-0.976-2.934-2.677-2.934c-2.375,0-3.38,1.74-3.38,4.16V120.917z"/>
	<path fill="#22704F" d="M171.867,106.806c1.066,0,1.852,0.786,1.852,1.814c0,1.043-0.785,1.785-1.852,1.785
		c-1.007,0-1.77-0.742-1.77-1.785C170.098,107.592,170.86,106.806,171.867,106.806z M173.243,125.362
		c0,1.572,0.567,2.072,2.049,2.072v1.905c-2.26,0.62-4.719,0.105-4.719-3.04v-11.463l2.67-1.089V125.362z"/>
	<path fill="#22704F" d="M185.335,117.377c0-1.254-0.65-1.437-1.891-1.437v-1.74c0.515-0.211,0.976-0.317,1.55-0.317
		c1.323,0,2.519,0.697,2.799,2.269h0.021c0.954-1.543,2.587-2.586,4.765-2.586c2.836,0,4.704,1.952,4.704,5.188v10.586h-2.685
		v-10.283c0-2.331-1.006-3.282-2.897-3.282c-2.238,0-3.689,1.859-3.689,3.1v10.466h-2.677V117.377z"/>
	<path fill="#22704F" d="M211.62,124.274c-0.589,0.24-1.225,0.726-1.225,1.466c0,0.605,0.317,0.982,1.149,1.134
		c1.604,0.289,4.083,0.592,5.777,0.938c2.147,0.439,3.947,1.634,3.947,4.297c0,2.691-2.466,5.399-7.185,5.399
		c-3.977,0-7.093-1.831-7.093-4.493c0-1.375,0.469-2.178,1.709-2.646c0.907-0.349,1.513-0.482,1.513-0.482l2.42-0.44v-0.091
		l-1.482-0.181c-1.693-0.229-3.116-0.954-3.116-2.646c0-1.543,1.316-2.497,2.391-2.814c-1.452-0.937-2.329-2.511-2.329-4.568
		c0-3.205,2.42-5.58,5.868-5.58c1.225,0,2.178,0.227,2.979,0.483h4.523c0.014,0.334,0.014,1.665,0,2.043
		c-2.571,0.031-4.175-0.574-4.175-0.574l-0.031,0.074c1.044,0.531,2.466,1.603,2.466,3.723c0,3.234-2.466,5.352-5.837,5.352
		C213.072,124.666,212.316,124.531,211.62,124.274z M214.811,129.674c-0.726,0.194-2.646,0.648-3.871,1.3
		c-0.756,0.378-1.27,0.681-1.27,1.635c0,1.797,2.207,2.705,4.415,2.705c2.617,0,4.491-0.937,4.491-3.085
		c0-1.466-1.059-2.103-2.6-2.36L214.811,129.674z M210.773,119.146c0,2.028,1.043,3.314,3.191,3.314
		c1.845,0,3.085-1.091,3.085-3.314c0-2.011-1.043-3.522-3.085-3.522C212.195,115.623,210.773,116.938,210.773,119.146z"/>
	<path fill="#22704F" d="M249.313,116.212h0.031c0.884-1.526,2.548-2.646,4.665-2.646c2.927,0,4.878,1.906,4.878,5.188v10.586
		h-2.678v-10.283c0-2.331-1.134-3.282-3.024-3.282c-2.321,0-3.811,1.769-3.872,3.146v10.42h-2.681v-22.534l2.681-1.105V116.212z"/>
	<path fill="#22704F" d="M271.627,122.64v1.015c0,2.586,1.363,3.945,3.383,3.945c1.951,0,2.889-1.254,3.123-2.843l2.191,0.166
		c0.145,2.497-1.82,4.871-5.314,4.871c-3.721,0-5.922-2.3-6.027-5.657c-0.061-2.254-0.061-3.22,0-4.702
		c0.166-3.237,2.215-5.869,6.027-5.869c3.342,0,5.354,2.086,5.354,5.203c0,2.086-0.447,2.359-2.775,2.857
		C275.221,122.157,271.627,122.64,271.627,122.64z M271.627,120.917c0,0,2.27-0.288,4.449-0.757
		c1.381-0.303,1.604-0.605,1.604-1.452c0-1.8-0.977-2.934-2.67-2.934c-2.367,0-3.383,1.74-3.383,4.16V120.917z"/>
	<path fill="#22704F" d="M291.178,117.377c0-1.254-0.666-1.437-1.893-1.437v-1.74c0.508-0.211,0.984-0.317,1.559-0.317
		c1.316,0,2.549,0.697,2.828,2.269h0.061c0.379-1.42,1.391-2.586,3.342-2.586c0.785,0,1.451,0.349,1.609,0.635l-0.408,1.892h-1.639
		c-2.18,0-2.736,1.271-2.775,4.188v9.06h-2.684V117.377z"/>
	<path fill="#22704F" d="M307.934,106.806l2.67-1.105v10.392h0.037c0.756-1.209,2.396-2.526,4.508-2.526
		c2.775,0,4.861,1.801,4.984,5.277c0.059,2.134,0.059,3.208,0,5.249c-0.1,3.434-2.914,5.702-6.18,5.702
		c-1.807,0-4.447-0.56-6.02-1.497V106.806z M310.604,127.071c0.832,0.349,1.988,0.528,3.1,0.528c2.072,0,3.652-1.043,3.734-3.508
		c0.105-2.132,0.07-3.237,0-5.218c-0.053-2.117-1.465-3.1-3.039-3.1c-2.086,0-3.795,1.663-3.795,3.068V127.071z"/>
	<path fill="#22704F" d="M342.885,129.34c-0.666,0.363-3.865,0.892-4.379-1.905h-0.088c-0.855,1.405-2.121,2.359-4.199,2.359
		c-2.359,0-4.318-1.663-4.318-4.371c0-2.117,0.795-2.812,3.152-3.509c1.951-0.545,5.174-1.285,5.115-1.254v-1.515
		c0-2.131-0.605-3.371-2.557-3.371c-1.801,0-2.836,1.043-2.836,2.677l-2.367,0.197c-0.35-3.146,2.299-5.083,5.361-5.083
		c3.176,0,5.064,1.77,5.064,5.429v6.717c0,1.572,0.697,1.724,2.051,1.724V129.34z M332.578,125.12c0,1.648,1.074,2.631,2.586,2.631
		c1.83,0,3.004-1.571,3.004-3.537v-2.012c0,0-2.686,0.635-4.033,1.072C332.904,123.683,332.578,124.168,332.578,125.12z"/>
	<path fill="#22704F" d="M357.027,129.34c-2.117,0.62-4.742,0.137-4.742-2.994v-19.54l2.691-1.105v19.693
		c0,1.572,0.568,2.041,2.051,2.041V129.34z"/>
	<polygon fill="#231F20" points="490.465,11.838 492.053,11.838 492.053,16.087 492.703,16.087 492.703,11.838 494.293,11.838 
		494.293,11.263 490.465,11.263 	"/>
	<path fill="#231F20" d="M498.686,11.263l-1.166,3.357c-0.113,0.333-0.197,0.605-0.258,0.771c-0.045-0.15-0.127-0.393-0.232-0.71
		l-1.127-3.418h-0.961v4.824h0.598v-4.098l1.398,4.098h0.582l1.416-4.053v4.053h0.596v-4.824H498.686z"/>
	<path fill="#231F20" d="M495.123,7.558c-3.297,0-5.98,2.707-5.98,6.004c0,3.297,2.684,6.004,5.98,6.004s5.996-2.707,5.996-6.004
		C501.119,10.265,498.42,7.558,495.123,7.558z M495.123,19.052c-3.018,0-5.49-2.464-5.49-5.49c0-3.024,2.473-5.474,5.49-5.474
		c3.023,0,5.482,2.45,5.482,5.474C500.605,16.587,498.146,19.052,495.123,19.052z"/>
</g>
</svg>
